<mxfile host="app.diagrams.net" agent="Mozilla/5.0 (Macintosh; Intel Mac OS X 10_15_7) AppleWebKit/605.1.15 (KHTML, like Gecko) Version/18.5 Safari/605.1.15" version="27.0.6" pages="2">
  <diagram name="How to get there" id="01ePc8Tuyl7z51Kn1E1f">
    <mxGraphModel dx="2050" dy="1063" grid="1" gridSize="10" guides="1" tooltips="1" connect="1" arrows="1" fold="1" page="1" pageScale="1" pageWidth="1100" pageHeight="850" math="0" shadow="0">
      <root>
        <mxCell id="0" />
        <mxCell id="1" parent="0" />
        <mxCell id="dud5a2MDrCl2JVzV9HfK-1" value="Azure Landing Zone" style="html=1;overflow=block;blockSpacing=1;whiteSpace=wrap;fontSize=13.5;align=center;spacing=3.8;verticalAlign=top;strokeColor=#1071e5;strokeOpacity=100;fillOpacity=100;fillColor=#edf5ff;dashed=1;fixDash=1;strokeWidth=1.5;lucidId=Sxqk2FWidzKk;" vertex="1" parent="1">
          <mxGeometry x="175" y="110" width="480" height="435" as="geometry" />
        </mxCell>
        <mxCell id="dud5a2MDrCl2JVzV9HfK-2" value="Azure Infrastructure as Code" style="html=1;overflow=block;blockSpacing=1;whiteSpace=wrap;fontSize=13.5;align=center;spacing=3.8;verticalAlign=top;strokeColor=#635dff;strokeOpacity=100;fillOpacity=100;fillColor=#f2f2ff;dashed=1;fixDash=1;strokeWidth=1.5;lucidId=Sxqkocr9w~X7;" vertex="1" parent="1">
          <mxGeometry x="446" y="320" width="570" height="345" as="geometry" />
        </mxCell>
        <mxCell id="dud5a2MDrCl2JVzV9HfK-3" value="Current State" style="html=1;overflow=block;blockSpacing=1;whiteSpace=wrap;fontSize=13.5;spacing=3.8;strokeOpacity=100;fillOpacity=100;fillColor=#dfe3e8;strokeWidth=1.5;lucidId=Sxqk0Hm0C1V8;" vertex="1" parent="1">
          <mxGeometry x="10" y="411" width="120" height="60" as="geometry" />
        </mxCell>
        <mxCell id="dud5a2MDrCl2JVzV9HfK-4" value="" style="html=1;jettySize=18;whiteSpace=wrap;fontSize=13;strokeColor=#666666;strokeOpacity=100;strokeWidth=0.8;rounded=1;arcSize=24;edgeStyle=orthogonalEdgeStyle;startArrow=none;endArrow=block;endFill=1;exitX=1;exitY=0.5;exitPerimeter=0;entryX=0;entryY=0.5;entryPerimeter=0;lucidId=Sxqku0y.~UKx;" edge="1" parent="1" source="dud5a2MDrCl2JVzV9HfK-3" target="dud5a2MDrCl2JVzV9HfK-5">
          <mxGeometry width="100" height="100" relative="1" as="geometry">
            <Array as="points" />
          </mxGeometry>
        </mxCell>
        <mxCell id="dud5a2MDrCl2JVzV9HfK-5" value="Redesign MG/Sub structure" style="html=1;overflow=block;blockSpacing=1;whiteSpace=wrap;fontSize=13.5;spacing=3.8;strokeOpacity=100;fillOpacity=100;fillColor=#ffffff;strokeWidth=1.5;lucidId=SxqklpzGklwg;" vertex="1" parent="1">
          <mxGeometry x="190" y="410" width="120" height="63" as="geometry" />
        </mxCell>
        <mxCell id="dud5a2MDrCl2JVzV9HfK-6" value="" style="html=1;jettySize=18;whiteSpace=wrap;fontSize=13;strokeColor=#666666;strokeOpacity=100;strokeWidth=0.8;rounded=1;arcSize=24;edgeStyle=orthogonalEdgeStyle;startArrow=none;endArrow=block;endFill=1;exitX=1.006;exitY=0.5;exitPerimeter=0;entryX=-0.006;entryY=0.5;entryPerimeter=0;lucidId=SxqkVcI6qq_b;" edge="1" parent="1" source="dud5a2MDrCl2JVzV9HfK-13" target="dud5a2MDrCl2JVzV9HfK-7">
          <mxGeometry width="100" height="100" relative="1" as="geometry">
            <Array as="points" />
          </mxGeometry>
        </mxCell>
        <mxCell id="dud5a2MDrCl2JVzV9HfK-7" value="IaC Deployment AZ LZ" style="html=1;overflow=block;blockSpacing=1;whiteSpace=wrap;fontSize=13.5;spacing=3.8;strokeOpacity=100;fillOpacity=100;fillColor=#ffffff;strokeWidth=1.5;lucidId=SxqkrNly4w6b;" vertex="1" parent="1">
          <mxGeometry x="686" y="410" width="120" height="63" as="geometry" />
        </mxCell>
        <mxCell id="dud5a2MDrCl2JVzV9HfK-8" value="" style="html=1;jettySize=18;whiteSpace=wrap;fontSize=13;strokeColor=#666666;strokeOpacity=100;strokeWidth=0.8;rounded=1;arcSize=24;edgeStyle=orthogonalEdgeStyle;startArrow=none;endArrow=block;endFill=1;exitX=1.006;exitY=0.5;exitPerimeter=0;entryX=-0.006;entryY=0.5;entryPerimeter=0;lucidId=SxqkLMN6eoeG;" edge="1" parent="1" source="dud5a2MDrCl2JVzV9HfK-7" target="dud5a2MDrCl2JVzV9HfK-9">
          <mxGeometry width="100" height="100" relative="1" as="geometry">
            <Array as="points" />
          </mxGeometry>
        </mxCell>
        <mxCell id="dud5a2MDrCl2JVzV9HfK-9" value="IaC Deployment Apps in LZ" style="html=1;overflow=block;blockSpacing=1;whiteSpace=wrap;fontSize=13.5;spacing=3.8;strokeOpacity=100;fillOpacity=100;fillColor=#e3fae3;strokeWidth=1.5;lucidId=Sxqkzc8BNDKJ;" vertex="1" parent="1">
          <mxGeometry x="865" y="410" width="120" height="63" as="geometry" />
        </mxCell>
        <mxCell id="dud5a2MDrCl2JVzV9HfK-10" value="" style="html=1;jettySize=18;whiteSpace=wrap;fontSize=13;strokeColor=#666666;strokeOpacity=100;strokeWidth=0.8;rounded=1;arcSize=24;edgeStyle=orthogonalEdgeStyle;startArrow=none;endArrow=block;endFill=1;exitX=1.006;exitY=0.5;exitPerimeter=0;entryX=-0.006;entryY=0.5;entryPerimeter=0;lucidId=SxqkxaxLo-bs;" edge="1" parent="1" source="dud5a2MDrCl2JVzV9HfK-5" target="dud5a2MDrCl2JVzV9HfK-11">
          <mxGeometry width="100" height="100" relative="1" as="geometry">
            <Array as="points" />
          </mxGeometry>
        </mxCell>
        <mxCell id="dud5a2MDrCl2JVzV9HfK-11" value="ARB Approval" style="html=1;overflow=block;blockSpacing=1;whiteSpace=wrap;fontSize=13.5;spacing=3.8;strokeOpacity=100;fillOpacity=100;fillColor=#ffffff;strokeWidth=1.5;lucidId=SxqkIjec7u__;" vertex="1" parent="1">
          <mxGeometry x="356" y="473" width="120" height="63" as="geometry" />
        </mxCell>
        <mxCell id="dud5a2MDrCl2JVzV9HfK-12" value="" style="html=1;jettySize=18;whiteSpace=wrap;fontSize=13;strokeColor=#666666;strokeOpacity=100;strokeWidth=0.8;rounded=1;arcSize=24;edgeStyle=orthogonalEdgeStyle;startArrow=none;endArrow=block;endFill=1;exitX=1.006;exitY=0.5;exitPerimeter=0;entryX=-0.006;entryY=0.5;entryPerimeter=0;lucidId=SxqkSs3SpOR9;" edge="1" parent="1" source="dud5a2MDrCl2JVzV9HfK-5" target="dud5a2MDrCl2JVzV9HfK-13">
          <mxGeometry width="100" height="100" relative="1" as="geometry">
            <Array as="points" />
          </mxGeometry>
        </mxCell>
        <mxCell id="dud5a2MDrCl2JVzV9HfK-13" value="IaC Deployment of MGs Structure" style="html=1;overflow=block;blockSpacing=1;whiteSpace=wrap;fontSize=13.5;spacing=3.8;strokeOpacity=100;fillOpacity=100;fillColor=#ffffff;strokeWidth=1.5;lucidId=SxqkCI.edLJd;" vertex="1" parent="1">
          <mxGeometry x="506" y="410" width="120" height="63" as="geometry" />
        </mxCell>
        <mxCell id="dud5a2MDrCl2JVzV9HfK-14" value="" style="html=1;jettySize=18;whiteSpace=wrap;fontSize=13;strokeColor=#666666;strokeOpacity=100;strokeWidth=0.8;rounded=1;arcSize=24;edgeStyle=orthogonalEdgeStyle;startArrow=none;endArrow=block;endFill=1;exitX=1.006;exitY=0.5;exitPerimeter=0;entryX=-0.006;entryY=0.5;entryPerimeter=0;lucidId=Sxqk6MGnsLut;" edge="1" parent="1" source="dud5a2MDrCl2JVzV9HfK-11" target="dud5a2MDrCl2JVzV9HfK-13">
          <mxGeometry width="100" height="100" relative="1" as="geometry">
            <Array as="points" />
          </mxGeometry>
        </mxCell>
        <mxCell id="dud5a2MDrCl2JVzV9HfK-15" style="html=1;overflow=block;blockSpacing=1;whiteSpace=wrap;shape=cylinder3;boundedLbl=1;size=15;lid=0;direction=south;fontSize=13.5;spacing=3.8;strokeOpacity=100;fillOpacity=100;rotation=180;fillColor=#ffffff;strokeWidth=1.5;lucidId=SxqkNHsehs.Z;" vertex="1" parent="1">
          <mxGeometry x="130" y="155" width="120" height="45" as="geometry" />
        </mxCell>
        <mxCell id="dud5a2MDrCl2JVzV9HfK-16" value="Org Structure" style="html=1;overflow=block;blockSpacing=1;whiteSpace=wrap;shape=cylinder3;boundedLbl=1;size=15;lid=0;direction=south;fontSize=13.5;spacing=3.8;strokeOpacity=100;fillOpacity=100;strokeWidth=1.5;lucidId=SxqkNHsehs.Z;fillColor=none;strokeColor=none;rotation=0;" vertex="1" parent="dud5a2MDrCl2JVzV9HfK-15">
          <mxGeometry width="120" height="45" relative="1" as="geometry" />
        </mxCell>
        <mxCell id="dud5a2MDrCl2JVzV9HfK-17" style="html=1;overflow=block;blockSpacing=1;whiteSpace=wrap;shape=cylinder3;boundedLbl=1;size=15;lid=0;direction=south;fontSize=13.5;spacing=3.8;strokeOpacity=100;fillOpacity=100;rotation=180;fillColor=#ffffff;strokeWidth=1.5;lucidId=SxqkKAxO-F2I;" vertex="1" parent="1">
          <mxGeometry x="446" y="155" width="120" height="45" as="geometry" />
        </mxCell>
        <mxCell id="dud5a2MDrCl2JVzV9HfK-18" value="AZ Landing Zone" style="html=1;overflow=block;blockSpacing=1;whiteSpace=wrap;shape=cylinder3;boundedLbl=1;size=15;lid=0;direction=south;fontSize=13.5;spacing=3.8;strokeOpacity=100;fillOpacity=100;strokeWidth=1.5;lucidId=SxqkKAxO-F2I;fillColor=none;strokeColor=none;rotation=0;" vertex="1" parent="dud5a2MDrCl2JVzV9HfK-17">
          <mxGeometry width="120" height="45" relative="1" as="geometry" />
        </mxCell>
        <mxCell id="dud5a2MDrCl2JVzV9HfK-19" style="html=1;overflow=block;blockSpacing=1;whiteSpace=wrap;shape=cylinder3;boundedLbl=1;size=15;lid=0;direction=south;fontSize=13.5;spacing=3.8;strokeOpacity=100;fillOpacity=100;rotation=180;fillColor=#ffffff;strokeWidth=1.5;lucidId=Sxqk2s0Kqmd.;" vertex="1" parent="1">
          <mxGeometry x="865" y="230" width="120" height="45" as="geometry" />
        </mxCell>
        <mxCell id="dud5a2MDrCl2JVzV9HfK-20" value="AZ Applications" style="html=1;overflow=block;blockSpacing=1;whiteSpace=wrap;shape=cylinder3;boundedLbl=1;size=15;lid=0;direction=south;fontSize=13.5;spacing=3.8;strokeOpacity=100;fillOpacity=100;strokeWidth=1.5;lucidId=Sxqk2s0Kqmd.;fillColor=none;strokeColor=none;rotation=0;" vertex="1" parent="dud5a2MDrCl2JVzV9HfK-19">
          <mxGeometry width="120" height="45" relative="1" as="geometry" />
        </mxCell>
        <mxCell id="dud5a2MDrCl2JVzV9HfK-21" style="html=1;overflow=block;blockSpacing=1;whiteSpace=wrap;shape=cylinder3;boundedLbl=1;size=15;lid=0;direction=south;fontSize=13.5;spacing=3.8;strokeOpacity=100;fillOpacity=100;rotation=180;fillColor=#ffffff;strokeWidth=1.5;lucidId=Sxqkk.dIg.LB;" vertex="1" parent="1">
          <mxGeometry x="551" y="80" width="120" height="45" as="geometry" />
        </mxCell>
        <mxCell id="dud5a2MDrCl2JVzV9HfK-22" value="AZ Entra" style="html=1;overflow=block;blockSpacing=1;whiteSpace=wrap;shape=cylinder3;boundedLbl=1;size=15;lid=0;direction=south;fontSize=13.5;spacing=3.8;strokeOpacity=100;fillOpacity=100;strokeWidth=1.5;lucidId=Sxqkk.dIg.LB;fillColor=none;strokeColor=none;rotation=0;" vertex="1" parent="dud5a2MDrCl2JVzV9HfK-21">
          <mxGeometry width="120" height="45" relative="1" as="geometry" />
        </mxCell>
        <mxCell id="dud5a2MDrCl2JVzV9HfK-23" value="Azure Iac" style="html=1;overflow=block;blockSpacing=1;whiteSpace=wrap;fontSize=13.5;spacing=3.8;strokeOpacity=100;fillOpacity=100;fillColor=#ffffff;strokeWidth=1.5;lucidId=Sxqkz5-p-D4P;" vertex="1" parent="1">
          <mxGeometry x="461" y="575" width="120" height="63" as="geometry" />
        </mxCell>
        <mxCell id="dud5a2MDrCl2JVzV9HfK-24" value="" style="html=1;jettySize=18;whiteSpace=wrap;fontSize=13;strokeColor=#666666;strokeOpacity=100;strokeWidth=0.8;rounded=1;arcSize=24;edgeStyle=orthogonalEdgeStyle;startArrow=none;endArrow=block;endFill=1;exitX=1;exitY=0.5;exitPerimeter=0;entryX=0;entryY=0.5;entryPerimeter=0;lucidId=SxqkA_BRSxt0;" edge="1" parent="1" source="dud5a2MDrCl2JVzV9HfK-23" target="dud5a2MDrCl2JVzV9HfK-7">
          <mxGeometry width="100" height="100" relative="1" as="geometry">
            <Array as="points" />
          </mxGeometry>
        </mxCell>
        <mxCell id="dud5a2MDrCl2JVzV9HfK-25" value="" style="html=1;jettySize=18;whiteSpace=wrap;fontSize=13;strokeColor=#666666;strokeOpacity=100;strokeWidth=0.8;rounded=1;arcSize=24;edgeStyle=orthogonalEdgeStyle;startArrow=none;endArrow=block;endFill=1;exitX=1;exitY=0.5;exitPerimeter=0;entryX=0;entryY=0.5;entryPerimeter=0;lucidId=Sxqk9Z.C2EiX;" edge="1" parent="1" source="dud5a2MDrCl2JVzV9HfK-23" target="dud5a2MDrCl2JVzV9HfK-9">
          <mxGeometry width="100" height="100" relative="1" as="geometry">
            <Array as="points" />
          </mxGeometry>
        </mxCell>
        <mxCell id="dud5a2MDrCl2JVzV9HfK-26" value="" style="html=1;jettySize=18;whiteSpace=wrap;fontSize=13;strokeColor=#666666;strokeOpacity=100;strokeWidth=0.8;rounded=1;arcSize=24;edgeStyle=orthogonalEdgeStyle;startArrow=none;endArrow=block;endFill=1;exitX=1.006;exitY=0.5;exitPerimeter=0;entryX=-0.006;entryY=0.5;entryPerimeter=0;lucidId=Sxqk7q6WeqQ0;" edge="1" parent="1" source="dud5a2MDrCl2JVzV9HfK-5" target="dud5a2MDrCl2JVzV9HfK-27">
          <mxGeometry width="100" height="100" relative="1" as="geometry">
            <Array as="points" />
          </mxGeometry>
        </mxCell>
        <mxCell id="dud5a2MDrCl2JVzV9HfK-27" value="Clean Up / Remove" style="html=1;overflow=block;blockSpacing=1;whiteSpace=wrap;fontSize=13.5;spacing=3.8;strokeOpacity=100;fillOpacity=100;fillColor=#ffffff;strokeWidth=1.5;lucidId=SxqkGKeazQV9;" vertex="1" parent="1">
          <mxGeometry x="356" y="335" width="120" height="63" as="geometry" />
        </mxCell>
        <mxCell id="dud5a2MDrCl2JVzV9HfK-28" value="" style="html=1;jettySize=18;whiteSpace=wrap;fontSize=13;strokeColor=#666666;strokeOpacity=100;strokeWidth=0.8;rounded=1;arcSize=24;edgeStyle=orthogonalEdgeStyle;startArrow=none;endArrow=block;endFill=1;exitX=1.006;exitY=0.5;exitPerimeter=0;entryX=-0.006;entryY=0.5;entryPerimeter=0;lucidId=Sxqkz4a_RNcN;" edge="1" parent="1" source="dud5a2MDrCl2JVzV9HfK-5" target="dud5a2MDrCl2JVzV9HfK-29">
          <mxGeometry width="100" height="100" relative="1" as="geometry">
            <Array as="points" />
          </mxGeometry>
        </mxCell>
        <mxCell id="dud5a2MDrCl2JVzV9HfK-29" value="Restructure Existing" style="html=1;overflow=block;blockSpacing=1;whiteSpace=wrap;fontSize=13.5;spacing=3.8;strokeOpacity=100;fillOpacity=100;fillColor=#ffffff;strokeWidth=1.5;lucidId=Sxqk~2UW5W3z;" vertex="1" parent="1">
          <mxGeometry x="401" y="245" width="120" height="63" as="geometry" />
        </mxCell>
        <mxCell id="dud5a2MDrCl2JVzV9HfK-30" value="" style="html=1;jettySize=18;whiteSpace=wrap;fontSize=13;strokeColor=#666666;strokeOpacity=100;strokeWidth=0.8;rounded=1;arcSize=24;edgeStyle=orthogonalEdgeStyle;startArrow=none;endArrow=block;endFill=1;exitX=1;exitY=0.5;exitPerimeter=0;entryX=0.5;entryY=0;entryPerimeter=0;lucidId=SxqkRakdEU-y;" edge="1" parent="1" source="dud5a2MDrCl2JVzV9HfK-29" target="dud5a2MDrCl2JVzV9HfK-13">
          <mxGeometry width="100" height="100" relative="1" as="geometry">
            <Array as="points" />
          </mxGeometry>
        </mxCell>
        <mxCell id="dud5a2MDrCl2JVzV9HfK-31" value="State Import?" style="text;html=1;resizable=0;labelBackgroundColor=default;align=center;verticalAlign=middle;fontSize=13.5;" vertex="1" parent="dud5a2MDrCl2JVzV9HfK-30">
          <mxGeometry x="0.3360884119231502" relative="1" as="geometry" />
        </mxCell>
        <mxCell id="dud5a2MDrCl2JVzV9HfK-32" value="Definition of Az Landing Zone" style="html=1;overflow=block;blockSpacing=1;whiteSpace=wrap;fontSize=13.5;spacing=3.8;strokeOpacity=100;fillOpacity=100;fillColor=#f4d9ff;strokeWidth=1.5;lucidId=SxqkV8HhgNfx;" vertex="1" parent="1">
          <mxGeometry x="130" y="497" width="120" height="63" as="geometry" />
        </mxCell>
        <mxCell id="dud5a2MDrCl2JVzV9HfK-33" value="" style="html=1;jettySize=18;whiteSpace=wrap;fontSize=13;strokeColor=#666666;strokeOpacity=100;strokeWidth=0.8;rounded=1;arcSize=24;edgeStyle=orthogonalEdgeStyle;startArrow=none;endArrow=block;endFill=1;exitX=1.006;exitY=0.5;exitPerimeter=0;entryX=-0.006;entryY=0.5;entryPerimeter=0;lucidId=3xqkKLyyLAeR;" edge="1" parent="1" source="dud5a2MDrCl2JVzV9HfK-32" target="dud5a2MDrCl2JVzV9HfK-11">
          <mxGeometry width="100" height="100" relative="1" as="geometry">
            <Array as="points" />
          </mxGeometry>
        </mxCell>
      </root>
    </mxGraphModel>
  </diagram>
  <diagram id="xYhPtKgttxivEb7-U0X2" name="Future State">
    <mxGraphModel dx="1633" dy="1417" grid="1" gridSize="10" guides="1" tooltips="1" connect="1" arrows="1" fold="1" page="1" pageScale="1" pageWidth="1100" pageHeight="850" math="0" shadow="0">
      <root>
        <mxCell id="0" />
        <mxCell id="1" parent="0" />
        <mxCell id="N81fPsQnxMyoQILsTn9--76" value="Platform" style="rounded=0;whiteSpace=wrap;html=1;fillColor=none;strokeColor=#6c8ebf;verticalAlign=top;fontColor=#003366;fontStyle=1;dashed=1;shadow=1;" vertex="1" parent="1">
          <mxGeometry x="1110" y="530" width="440" height="310" as="geometry" />
        </mxCell>
        <mxCell id="N81fPsQnxMyoQILsTn9--78" value="Application Based LZs" style="rounded=0;whiteSpace=wrap;html=1;fillColor=none;strokeColor=#666666;verticalAlign=top;fontColor=#333333;fontStyle=1;dashed=1;shadow=1;" vertex="1" parent="1">
          <mxGeometry x="1885" y="581.5" width="260" height="240" as="geometry" />
        </mxCell>
        <mxCell id="N81fPsQnxMyoQILsTn9--79" value="Domain Based LZs" style="rounded=0;whiteSpace=wrap;html=1;fillColor=none;strokeColor=#666666;verticalAlign=top;fontColor=#333333;fontStyle=1;dashed=1;shadow=1;" vertex="1" parent="1">
          <mxGeometry x="2175" y="581.5" width="260" height="240" as="geometry" />
        </mxCell>
        <mxCell id="N81fPsQnxMyoQILsTn9--77" value="Landing Zones" style="rounded=0;whiteSpace=wrap;html=1;fillColor=none;strokeColor=#6c8ebf;verticalAlign=top;fontColor=#003366;fontStyle=1;dashed=1;shadow=1;" vertex="1" parent="1">
          <mxGeometry x="1580.5" y="530" width="1169.5" height="310" as="geometry" />
        </mxCell>
        <mxCell id="N81fPsQnxMyoQILsTn9--38" value="Management" style="image;aspect=fixed;html=1;points=[];align=center;fontSize=12;image=img/lib/azure2/general/Subscriptions.svg;" vertex="1" parent="1">
          <mxGeometry x="1162.6100000000001" y="645" width="24.79" height="40" as="geometry" />
        </mxCell>
        <mxCell id="N81fPsQnxMyoQILsTn9--51" style="edgeStyle=orthogonalEdgeStyle;rounded=1;orthogonalLoop=1;jettySize=auto;html=1;exitX=0.5;exitY=1;exitDx=0;exitDy=0;exitPerimeter=0;fillColor=#f5f5f5;strokeColor=#666666;curved=0;" edge="1" parent="1" source="N81fPsQnxMyoQILsTn9--41" target="N81fPsQnxMyoQILsTn9--42">
          <mxGeometry relative="1" as="geometry" />
        </mxCell>
        <mxCell id="N81fPsQnxMyoQILsTn9--56" style="edgeStyle=orthogonalEdgeStyle;rounded=1;orthogonalLoop=1;jettySize=auto;html=1;exitX=0.5;exitY=1;exitDx=0;exitDy=0;exitPerimeter=0;curved=0;fillColor=#f5f5f5;strokeColor=#666666;" edge="1" parent="1" source="N81fPsQnxMyoQILsTn9--41" target="N81fPsQnxMyoQILsTn9--52">
          <mxGeometry relative="1" as="geometry" />
        </mxCell>
        <mxCell id="N81fPsQnxMyoQILsTn9--41" value="Tenant Root group" style="image;aspect=fixed;html=1;points=[[0,0.5,0,0,0],[0.5,0,0,0,0],[0.5,1,0,0,0],[1,0.5,0,0,0]];align=center;fontSize=12;image=img/lib/azure2/general/Management_Groups.svg;" vertex="1" parent="1">
          <mxGeometry x="1720" y="5" width="40" height="38.79" as="geometry" />
        </mxCell>
        <mxCell id="N81fPsQnxMyoQILsTn9--50" style="edgeStyle=orthogonalEdgeStyle;rounded=1;orthogonalLoop=1;jettySize=auto;html=1;exitX=0.5;exitY=1;exitDx=0;exitDy=0;exitPerimeter=0;curved=0;fillColor=#f5f5f5;strokeColor=#666666;" edge="1" parent="1" source="N81fPsQnxMyoQILsTn9--42" target="N81fPsQnxMyoQILsTn9--43">
          <mxGeometry relative="1" as="geometry" />
        </mxCell>
        <mxCell id="N81fPsQnxMyoQILsTn9--42" value="Platform" style="image;aspect=fixed;html=1;points=[[0,0.5,0,0,0],[0.5,0,0,0,0],[0.5,1,0,0,0],[1,0.5,0,0,0]];align=center;fontSize=12;image=img/lib/azure2/general/Management_Groups.svg;" vertex="1" parent="1">
          <mxGeometry x="1315" y="286.21" width="40" height="38.79" as="geometry" />
        </mxCell>
        <mxCell id="N81fPsQnxMyoQILsTn9--43" value="Management" style="image;aspect=fixed;html=1;points=[[0,0.5,0,0,0],[0.5,0,0,0,0],[0.5,1,0,0,0],[1,0.5,0,0,0]];align=center;fontSize=12;image=img/lib/azure2/general/Management_Groups.svg;" vertex="1" parent="1">
          <mxGeometry x="1155" y="445" width="40" height="38.79" as="geometry" />
        </mxCell>
        <mxCell id="N81fPsQnxMyoQILsTn9--44" value="Identity" style="image;aspect=fixed;html=1;points=[[0,0.5,0,0,0],[0.5,0,0,0,0],[0.5,1,0,0,0],[1,0.5,0,0,0]];align=center;fontSize=12;image=img/lib/azure2/general/Management_Groups.svg;" vertex="1" parent="1">
          <mxGeometry x="1315" y="445" width="40" height="38.79" as="geometry" />
        </mxCell>
        <mxCell id="N81fPsQnxMyoQILsTn9--45" value="Connectivity" style="image;aspect=fixed;html=1;points=[[0,0.5,0,0,0],[0.5,0,0,0,0],[0.5,1,0,0,0],[1,0.5,0,0,0]];align=center;fontSize=12;image=img/lib/azure2/general/Management_Groups.svg;" vertex="1" parent="1">
          <mxGeometry x="1475" y="445" width="40" height="38.79" as="geometry" />
        </mxCell>
        <mxCell id="N81fPsQnxMyoQILsTn9--48" style="edgeStyle=orthogonalEdgeStyle;rounded=1;orthogonalLoop=1;jettySize=auto;html=1;exitX=0.5;exitY=1;exitDx=0;exitDy=0;exitPerimeter=0;entryX=0.5;entryY=0;entryDx=0;entryDy=0;entryPerimeter=0;curved=0;fillColor=#f5f5f5;strokeColor=#666666;" edge="1" parent="1" source="N81fPsQnxMyoQILsTn9--42" target="N81fPsQnxMyoQILsTn9--44">
          <mxGeometry relative="1" as="geometry" />
        </mxCell>
        <mxCell id="N81fPsQnxMyoQILsTn9--49" style="edgeStyle=orthogonalEdgeStyle;rounded=1;orthogonalLoop=1;jettySize=auto;html=1;exitX=0.5;exitY=1;exitDx=0;exitDy=0;exitPerimeter=0;entryX=0.516;entryY=-0.05;entryDx=0;entryDy=0;entryPerimeter=0;curved=0;fillColor=#f5f5f5;strokeColor=#666666;" edge="1" parent="1" source="N81fPsQnxMyoQILsTn9--42" target="N81fPsQnxMyoQILsTn9--45">
          <mxGeometry relative="1" as="geometry" />
        </mxCell>
        <mxCell id="N81fPsQnxMyoQILsTn9--57" style="edgeStyle=orthogonalEdgeStyle;rounded=1;orthogonalLoop=1;jettySize=auto;html=1;exitX=0.5;exitY=1;exitDx=0;exitDy=0;exitPerimeter=0;curved=0;fillColor=#f5f5f5;strokeColor=#666666;" edge="1" parent="1" source="N81fPsQnxMyoQILsTn9--52" target="N81fPsQnxMyoQILsTn9--53">
          <mxGeometry relative="1" as="geometry" />
        </mxCell>
        <mxCell id="N81fPsQnxMyoQILsTn9--58" style="edgeStyle=orthogonalEdgeStyle;rounded=1;orthogonalLoop=1;jettySize=auto;html=1;exitX=0.5;exitY=1;exitDx=0;exitDy=0;exitPerimeter=0;curved=0;fillColor=#f5f5f5;strokeColor=#666666;" edge="1" parent="1" source="N81fPsQnxMyoQILsTn9--52" target="N81fPsQnxMyoQILsTn9--54">
          <mxGeometry relative="1" as="geometry" />
        </mxCell>
        <mxCell id="N81fPsQnxMyoQILsTn9--52" value="Landing Zones" style="image;aspect=fixed;html=1;points=[[0,0.5,0,0,0],[0.5,0,0,0,0],[0.5,1,0,0,0],[1,0.5,0,0,0]];align=center;fontSize=12;image=img/lib/azure2/general/Management_Groups.svg;" vertex="1" parent="1">
          <mxGeometry x="2125.29" y="286.21" width="40" height="38.79" as="geometry" />
        </mxCell>
        <mxCell id="N81fPsQnxMyoQILsTn9--53" value="Corp" style="image;aspect=fixed;html=1;points=[[0,0.5,0,0,0],[0.5,0,0,0,0],[0.5,1,0,0,0],[1,0.5,0,0,0]];align=center;fontSize=12;image=img/lib/azure2/general/Management_Groups.svg;" vertex="1" parent="1">
          <mxGeometry x="1830" y="445" width="40" height="38.79" as="geometry" />
        </mxCell>
        <mxCell id="N81fPsQnxMyoQILsTn9--54" value="Online" style="image;aspect=fixed;html=1;points=[[0,0.5,0,0,0],[0.5,0,0,0,0],[0.5,1,0,0,0],[1,0.5,0,0,0]];align=center;fontSize=12;image=img/lib/azure2/general/Management_Groups.svg;" vertex="1" parent="1">
          <mxGeometry x="2125.29" y="445" width="40" height="38.79" as="geometry" />
        </mxCell>
        <mxCell id="N81fPsQnxMyoQILsTn9--55" value="Sandbox" style="image;aspect=fixed;html=1;points=[[0,0.5,0,0,0],[0.5,0,0,0,0],[0.5,1,0,0,0],[1,0.5,0,0,0]];align=center;fontSize=12;image=img/lib/azure2/general/Management_Groups.svg;" vertex="1" parent="1">
          <mxGeometry x="2565.29" y="445" width="40" height="38.79" as="geometry" />
        </mxCell>
        <mxCell id="N81fPsQnxMyoQILsTn9--59" style="edgeStyle=orthogonalEdgeStyle;rounded=1;orthogonalLoop=1;jettySize=auto;html=1;exitX=0.5;exitY=1;exitDx=0;exitDy=0;exitPerimeter=0;entryX=0.5;entryY=0;entryDx=0;entryDy=0;entryPerimeter=0;curved=0;fillColor=#f5f5f5;strokeColor=#666666;" edge="1" parent="1" source="N81fPsQnxMyoQILsTn9--52" target="N81fPsQnxMyoQILsTn9--55">
          <mxGeometry relative="1" as="geometry" />
        </mxCell>
        <mxCell id="N81fPsQnxMyoQILsTn9--61" value="Identity" style="image;aspect=fixed;html=1;points=[];align=center;fontSize=12;image=img/lib/azure2/general/Subscriptions.svg;" vertex="1" parent="1">
          <mxGeometry x="1322.6100000000001" y="645" width="24.79" height="40" as="geometry" />
        </mxCell>
        <mxCell id="N81fPsQnxMyoQILsTn9--62" value="Connectivity" style="image;aspect=fixed;html=1;points=[];align=center;fontSize=12;image=img/lib/azure2/general/Subscriptions.svg;" vertex="1" parent="1">
          <mxGeometry x="1482.6100000000001" y="645" width="24.79" height="40" as="geometry" />
        </mxCell>
        <mxCell id="N81fPsQnxMyoQILsTn9--64" value="Platform Tools&lt;div&gt;Non-Prod&lt;/div&gt;" style="image;aspect=fixed;html=1;points=[];align=center;fontSize=12;image=img/lib/azure2/general/Subscriptions.svg;" vertex="1" parent="1">
          <mxGeometry x="1620.5" y="615" width="24.79" height="40" as="geometry" />
        </mxCell>
        <mxCell id="N81fPsQnxMyoQILsTn9--65" value="Platform Tools&lt;div&gt;Production&lt;/div&gt;" style="image;aspect=fixed;html=1;points=[];align=center;fontSize=12;image=img/lib/azure2/general/Subscriptions.svg;" vertex="1" parent="1">
          <mxGeometry x="1680" y="655" width="24.79" height="40" as="geometry" />
        </mxCell>
        <mxCell id="N81fPsQnxMyoQILsTn9--66" value="Shared Services" style="image;aspect=fixed;html=1;points=[];align=center;fontSize=12;image=img/lib/azure2/general/Subscriptions.svg;" vertex="1" parent="1">
          <mxGeometry x="1790" y="618.5" width="24.79" height="40" as="geometry" />
        </mxCell>
        <mxCell id="N81fPsQnxMyoQILsTn9--67" value="App 1 LZ&lt;div&gt;Dev&lt;/div&gt;" style="image;aspect=fixed;html=1;points=[];align=center;fontSize=12;image=img/lib/azure2/general/Subscriptions.svg;" vertex="1" parent="1">
          <mxGeometry x="1945.0000000000002" y="611.5" width="24.79" height="40" as="geometry" />
        </mxCell>
        <mxCell id="N81fPsQnxMyoQILsTn9--68" value="App 1 LZ&lt;div&gt;QA&lt;/div&gt;" style="image;aspect=fixed;html=1;points=[];align=center;fontSize=12;image=img/lib/azure2/general/Subscriptions.svg;" vertex="1" parent="1">
          <mxGeometry x="2007.3900000000003" y="651.5" width="24.79" height="40" as="geometry" />
        </mxCell>
        <mxCell id="N81fPsQnxMyoQILsTn9--69" value="App 1 LZ&lt;div&gt;Prod&lt;/div&gt;" style="image;aspect=fixed;html=1;points=[];align=center;fontSize=12;image=img/lib/azure2/general/Subscriptions.svg;" vertex="1" parent="1">
          <mxGeometry x="2062.3900000000003" y="701.5" width="24.79" height="40" as="geometry" />
        </mxCell>
        <mxCell id="N81fPsQnxMyoQILsTn9--70" value="Domain 1 LZ&lt;div&gt;Dev&lt;/div&gt;" style="image;aspect=fixed;html=1;points=[];align=center;fontSize=12;image=img/lib/azure2/general/Subscriptions.svg;" vertex="1" parent="1">
          <mxGeometry x="2233.8" y="631.5" width="24.79" height="40" as="geometry" />
        </mxCell>
        <mxCell id="N81fPsQnxMyoQILsTn9--71" value="Domain 1 LZ&lt;div&gt;QA&lt;/div&gt;" style="image;aspect=fixed;html=1;points=[];align=center;fontSize=12;image=img/lib/azure2/general/Subscriptions.svg;" vertex="1" parent="1">
          <mxGeometry x="2296.19" y="671.5" width="24.79" height="40" as="geometry" />
        </mxCell>
        <mxCell id="N81fPsQnxMyoQILsTn9--72" value="Domain 1 LZ&lt;div&gt;Prod&lt;/div&gt;" style="image;aspect=fixed;html=1;points=[];align=center;fontSize=12;image=img/lib/azure2/general/Subscriptions.svg;" vertex="1" parent="1">
          <mxGeometry x="2351.19" y="721.5" width="24.79" height="40" as="geometry" />
        </mxCell>
        <mxCell id="N81fPsQnxMyoQILsTn9--73" value="Sandbox 1" style="image;aspect=fixed;html=1;points=[];align=center;fontSize=12;image=img/lib/azure2/general/Subscriptions.svg;" vertex="1" parent="1">
          <mxGeometry x="2500" y="608.5" width="24.79" height="40" as="geometry" />
        </mxCell>
        <mxCell id="N81fPsQnxMyoQILsTn9--74" value="Sandbox 2" style="image;aspect=fixed;html=1;points=[];align=center;fontSize=12;image=img/lib/azure2/general/Subscriptions.svg;" vertex="1" parent="1">
          <mxGeometry x="2582.6" y="671.5" width="24.79" height="40" as="geometry" />
        </mxCell>
        <mxCell id="N81fPsQnxMyoQILsTn9--75" value="Domain 1 Sandbox" style="image;aspect=fixed;html=1;points=[];align=center;fontSize=12;image=img/lib/azure2/general/Subscriptions.svg;" vertex="1" parent="1">
          <mxGeometry x="2657.39" y="721.5" width="24.79" height="40" as="geometry" />
        </mxCell>
      </root>
    </mxGraphModel>
  </diagram>
</mxfile>
